<mxfile host="app.diagrams.net" modified="2023-07-10T16:23:13.639Z" agent="Mozilla/5.0 (Windows NT 10.0; Win64; x64) AppleWebKit/537.36 (KHTML, like Gecko) Chrome/114.0.0.0 Safari/537.36" etag="VElrOPCkS96coGvdD-Xq" version="21.6.1" type="device">
  <diagram name="Page-1" id="0cxLK6B1qZ-80W-4j8hx">
    <mxGraphModel dx="2079" dy="794" grid="0" gridSize="10" guides="1" tooltips="1" connect="1" arrows="1" fold="1" page="0" pageScale="1" pageWidth="850" pageHeight="1100" math="0" shadow="0">
      <root>
        <mxCell id="0" />
        <mxCell id="1" parent="0" />
        <mxCell id="Iu25lgEWChFgaFbriD92-5" value="" style="curved=1;endArrow=classic;html=1;rounded=0;fontSize=14;fontStyle=1;exitX=1;exitY=0.5;exitDx=0;exitDy=0;entryX=0.5;entryY=0;entryDx=0;entryDy=0;" parent="1" source="WK32DhDvXuLAIViGbRyr-48" target="WK32DhDvXuLAIViGbRyr-4" edge="1">
          <mxGeometry width="50" height="50" relative="1" as="geometry">
            <mxPoint x="255" y="230" as="sourcePoint" />
            <mxPoint x="290" y="190" as="targetPoint" />
            <Array as="points">
              <mxPoint x="260" y="210" />
              <mxPoint x="270" y="190" />
            </Array>
          </mxGeometry>
        </mxCell>
        <mxCell id="Iu25lgEWChFgaFbriD92-103" value="&lt;font style=&quot;font-size: 18px;&quot;&gt;Output&lt;/font&gt;" style="rounded=1;whiteSpace=wrap;html=1;fillColor=#f5f5f5;gradientColor=#b3b3b3;strokeColor=#666666;fontSize=14;fontStyle=1;rotation=-90;" parent="1" vertex="1">
          <mxGeometry x="1460" y="281.22" width="90" height="35" as="geometry" />
        </mxCell>
        <mxCell id="Iu25lgEWChFgaFbriD92-110" value="" style="strokeWidth=2;html=1;shape=mxgraph.flowchart.annotation_1;align=left;pointerEvents=1;direction=south;fontSize=14;fontStyle=1" parent="1" vertex="1">
          <mxGeometry x="637.5" y="135.63" width="380" height="50" as="geometry" />
        </mxCell>
        <mxCell id="Iu25lgEWChFgaFbriD92-111" value="&lt;font style=&quot;font-size: 18px;&quot;&gt;Decision Sub Graph&lt;/font&gt;" style="text;html=1;align=center;verticalAlign=middle;resizable=0;points=[];autosize=1;strokeColor=none;fillColor=none;fontSize=14;fontStyle=1" parent="1" vertex="1">
          <mxGeometry x="1260" y="95.63" width="200" height="40" as="geometry" />
        </mxCell>
        <mxCell id="Iu25lgEWChFgaFbriD92-123" value="&lt;font style=&quot;font-size: 18px;&quot;&gt;Sub Graph1&lt;/font&gt;" style="text;html=1;align=center;verticalAlign=middle;resizable=0;points=[];autosize=1;strokeColor=none;fillColor=none;fontSize=14;fontStyle=1" parent="1" vertex="1">
          <mxGeometry x="352.5" y="95.63" width="130" height="40" as="geometry" />
        </mxCell>
        <mxCell id="Iu25lgEWChFgaFbriD92-125" value="&lt;font style=&quot;font-size: 18px;&quot;&gt;Skipping Sub Graph1 and Sub Graph2&lt;/font&gt;" style="text;html=1;align=center;verticalAlign=middle;resizable=0;points=[];autosize=1;strokeColor=none;fillColor=none;fontSize=14;fontStyle=1;rotation=0;" parent="1" vertex="1">
          <mxGeometry x="496" y="440" width="350" height="40" as="geometry" />
        </mxCell>
        <mxCell id="Iu25lgEWChFgaFbriD92-127" value="&lt;font style=&quot;font-size: 18px;&quot;&gt;Merging Early Exit Sub Graph with Decision Sub Graph&lt;/font&gt;" style="text;html=1;align=center;verticalAlign=middle;resizable=0;points=[];autosize=1;strokeColor=none;fillColor=none;fontSize=14;fontStyle=1;rotation=0;" parent="1" vertex="1">
          <mxGeometry x="440" y="480" width="500" height="40" as="geometry" />
        </mxCell>
        <mxCell id="Iu25lgEWChFgaFbriD92-145" value="&lt;font style=&quot;font-size: 48px;&quot;&gt;...&lt;/font&gt;" style="text;html=1;align=center;verticalAlign=middle;resizable=0;points=[];autosize=1;strokeColor=none;fillColor=none;fontSize=14;fontStyle=1" parent="1" vertex="1">
          <mxGeometry x="30" y="139" width="60" height="70" as="geometry" />
        </mxCell>
        <mxCell id="Iu25lgEWChFgaFbriD92-146" value="&lt;font style=&quot;font-size: 48px;&quot;&gt;...&lt;/font&gt;" style="text;html=1;align=center;verticalAlign=middle;resizable=0;points=[];autosize=1;strokeColor=none;fillColor=none;fontSize=14;fontStyle=1" parent="1" vertex="1">
          <mxGeometry x="30" y="380" width="60" height="70" as="geometry" />
        </mxCell>
        <mxCell id="Iu25lgEWChFgaFbriD92-147" value="&lt;font style=&quot;font-size: 18px;&quot;&gt;Early Exit Sub Graph&lt;/font&gt;" style="text;html=1;align=center;verticalAlign=middle;resizable=0;points=[];autosize=1;strokeColor=none;fillColor=none;fontSize=14;fontStyle=1;rotation=-90;" parent="1" vertex="1">
          <mxGeometry x="-36" y="287.5" width="200" height="40" as="geometry" />
        </mxCell>
        <mxCell id="WK32DhDvXuLAIViGbRyr-26" style="edgeStyle=orthogonalEdgeStyle;rounded=0;orthogonalLoop=1;jettySize=auto;html=1;exitX=0.5;exitY=1;exitDx=0;exitDy=0;entryX=0.5;entryY=0;entryDx=0;entryDy=0;" parent="1" source="WK32DhDvXuLAIViGbRyr-4" target="WK32DhDvXuLAIViGbRyr-49" edge="1">
          <mxGeometry relative="1" as="geometry">
            <mxPoint x="345" y="186.25" as="targetPoint" />
          </mxGeometry>
        </mxCell>
        <mxCell id="WK32DhDvXuLAIViGbRyr-4" value="&lt;b&gt;&lt;font style=&quot;font-size: 18px;&quot;&gt;Conv&lt;/font&gt;&lt;/b&gt;" style="rounded=1;whiteSpace=wrap;html=1;fillColor=#0038A8;fontColor=#ffffff;strokeColor=#001DBC;rotation=-90;" parent="1" vertex="1">
          <mxGeometry x="276.87" y="169.39" width="65" height="33.74" as="geometry" />
        </mxCell>
        <mxCell id="WK32DhDvXuLAIViGbRyr-40" style="edgeStyle=orthogonalEdgeStyle;rounded=0;orthogonalLoop=1;jettySize=auto;html=1;exitX=0.5;exitY=1;exitDx=0;exitDy=0;entryX=0.5;entryY=0;entryDx=0;entryDy=0;" parent="1" source="WK32DhDvXuLAIViGbRyr-50" target="WK32DhDvXuLAIViGbRyr-39" edge="1">
          <mxGeometry relative="1" as="geometry">
            <mxPoint x="625" y="186.88" as="sourcePoint" />
          </mxGeometry>
        </mxCell>
        <mxCell id="WK32DhDvXuLAIViGbRyr-39" value="&lt;b&gt;&lt;font style=&quot;font-size: 18px;&quot;&gt;Conv&lt;/font&gt;&lt;/b&gt;" style="rounded=1;whiteSpace=wrap;html=1;fillColor=#0038A8;fontColor=#ffffff;strokeColor=#001DBC;rotation=-90;" parent="1" vertex="1">
          <mxGeometry x="490" y="170.01" width="65" height="33.74" as="geometry" />
        </mxCell>
        <mxCell id="WK32DhDvXuLAIViGbRyr-45" value="" style="curved=1;endArrow=classic;html=1;rounded=0;exitX=0.5;exitY=1;exitDx=0;exitDy=0;fontSize=14;fontStyle=1;entryX=1;entryY=0.5;entryDx=0;entryDy=0;" parent="1" source="WK32DhDvXuLAIViGbRyr-39" target="WK32DhDvXuLAIViGbRyr-46" edge="1">
          <mxGeometry width="50" height="50" relative="1" as="geometry">
            <mxPoint x="550" y="186.25" as="sourcePoint" />
            <mxPoint x="635" y="260" as="targetPoint" />
            <Array as="points">
              <mxPoint x="590" y="210" />
            </Array>
          </mxGeometry>
        </mxCell>
        <mxCell id="WK32DhDvXuLAIViGbRyr-121" style="edgeStyle=orthogonalEdgeStyle;rounded=0;orthogonalLoop=1;jettySize=auto;html=1;exitX=0.5;exitY=1;exitDx=0;exitDy=0;entryX=0.5;entryY=0;entryDx=0;entryDy=0;" parent="1" source="WK32DhDvXuLAIViGbRyr-46" target="WK32DhDvXuLAIViGbRyr-163" edge="1">
          <mxGeometry relative="1" as="geometry">
            <mxPoint x="645.6300000000006" y="301.87" as="targetPoint" />
          </mxGeometry>
        </mxCell>
        <mxCell id="WK32DhDvXuLAIViGbRyr-46" value="&lt;b&gt;&lt;font style=&quot;font-size: 18px;&quot;&gt;Add&lt;/font&gt;&lt;/b&gt;" style="rounded=1;whiteSpace=wrap;html=1;fillColor=#76608a;fontColor=#ffffff;strokeColor=#432D57;rotation=-90;" parent="1" vertex="1">
          <mxGeometry x="555" y="285" width="65" height="33.74" as="geometry" />
        </mxCell>
        <mxCell id="WK32DhDvXuLAIViGbRyr-48" value="&lt;b&gt;&lt;font style=&quot;font-size: 18px;&quot;&gt;Relu&lt;/font&gt;&lt;/b&gt;" style="rounded=1;whiteSpace=wrap;html=1;fillColor=#a20025;fontColor=#ffffff;strokeColor=#6F0000;rotation=-90;" parent="1" vertex="1">
          <mxGeometry x="220" y="283.74" width="65" height="33.74" as="geometry" />
        </mxCell>
        <mxCell id="WK32DhDvXuLAIViGbRyr-152" style="edgeStyle=orthogonalEdgeStyle;rounded=0;orthogonalLoop=1;jettySize=auto;html=1;exitX=0.5;exitY=1;exitDx=0;exitDy=0;entryX=0.5;entryY=0;entryDx=0;entryDy=0;" parent="1" source="WK32DhDvXuLAIViGbRyr-49" target="WK32DhDvXuLAIViGbRyr-151" edge="1">
          <mxGeometry relative="1" as="geometry" />
        </mxCell>
        <mxCell id="WK32DhDvXuLAIViGbRyr-49" value="&lt;b&gt;&lt;font style=&quot;font-size: 18px;&quot;&gt;Relu&lt;/font&gt;&lt;/b&gt;" style="rounded=1;whiteSpace=wrap;html=1;fillColor=#a20025;fontColor=#ffffff;strokeColor=#6F0000;rotation=-90;" parent="1" vertex="1">
          <mxGeometry x="330" y="169.38" width="65" height="33.74" as="geometry" />
        </mxCell>
        <mxCell id="WK32DhDvXuLAIViGbRyr-50" value="&lt;b&gt;&lt;font style=&quot;font-size: 18px;&quot;&gt;Relu&lt;/font&gt;&lt;/b&gt;" style="rounded=1;whiteSpace=wrap;html=1;fillColor=#a20025;fontColor=#ffffff;strokeColor=#6F0000;rotation=-90;" parent="1" vertex="1">
          <mxGeometry x="440" y="170.01" width="65" height="33.74" as="geometry" />
        </mxCell>
        <mxCell id="WK32DhDvXuLAIViGbRyr-52" style="edgeStyle=orthogonalEdgeStyle;rounded=0;orthogonalLoop=1;jettySize=auto;html=1;exitX=0.5;exitY=1;exitDx=0;exitDy=0;entryX=0.5;entryY=0;entryDx=0;entryDy=0;" parent="1" source="WK32DhDvXuLAIViGbRyr-51" target="WK32DhDvXuLAIViGbRyr-48" edge="1">
          <mxGeometry relative="1" as="geometry" />
        </mxCell>
        <mxCell id="WK32DhDvXuLAIViGbRyr-51" value="&lt;b&gt;&lt;font style=&quot;font-size: 18px;&quot;&gt;Add&lt;/font&gt;&lt;/b&gt;" style="rounded=1;whiteSpace=wrap;html=1;fillColor=#76608a;fontColor=#ffffff;strokeColor=#432D57;rotation=-90;" parent="1" vertex="1">
          <mxGeometry x="132.5" y="283.74" width="65" height="33.74" as="geometry" />
        </mxCell>
        <mxCell id="WK32DhDvXuLAIViGbRyr-60" value="" style="curved=1;endArrow=classic;html=1;rounded=0;exitX=0;exitY=0.5;exitDx=0;exitDy=0;entryX=0;entryY=0.5;entryDx=0;entryDy=0;" parent="1" source="WK32DhDvXuLAIViGbRyr-48" target="WK32DhDvXuLAIViGbRyr-46" edge="1">
          <mxGeometry width="50" height="50" relative="1" as="geometry">
            <mxPoint x="290" y="300" as="sourcePoint" />
            <mxPoint x="340" y="250" as="targetPoint" />
            <Array as="points">
              <mxPoint x="270" y="410" />
              <mxPoint x="410" y="430" />
              <mxPoint x="580" y="410" />
            </Array>
          </mxGeometry>
        </mxCell>
        <mxCell id="WK32DhDvXuLAIViGbRyr-62" value="" style="curved=1;endArrow=classic;html=1;rounded=0;exitX=0.5;exitY=1;exitDx=0;exitDy=0;fontSize=14;fontStyle=1;entryX=1;entryY=0.5;entryDx=0;entryDy=0;" parent="1" target="WK32DhDvXuLAIViGbRyr-51" edge="1">
          <mxGeometry width="50" height="50" relative="1" as="geometry">
            <mxPoint x="93.75" y="185" as="sourcePoint" />
            <mxPoint x="179.38" y="272" as="targetPoint" />
            <Array as="points">
              <mxPoint x="170" y="180" />
            </Array>
          </mxGeometry>
        </mxCell>
        <mxCell id="WK32DhDvXuLAIViGbRyr-63" value="" style="curved=1;endArrow=classic;html=1;rounded=0;exitX=0.5;exitY=1;exitDx=0;exitDy=0;fontSize=14;fontStyle=1;entryX=0;entryY=0.5;entryDx=0;entryDy=0;" parent="1" source="WK32DhDvXuLAIViGbRyr-150" target="WK32DhDvXuLAIViGbRyr-51" edge="1">
          <mxGeometry width="50" height="50" relative="1" as="geometry">
            <mxPoint x="95" y="428.75" as="sourcePoint" />
            <mxPoint x="167.5" y="518" as="targetPoint" />
            <Array as="points">
              <mxPoint x="170" y="420" />
            </Array>
          </mxGeometry>
        </mxCell>
        <mxCell id="WK32DhDvXuLAIViGbRyr-123" style="edgeStyle=orthogonalEdgeStyle;rounded=0;orthogonalLoop=1;jettySize=auto;html=1;exitX=0.5;exitY=1;exitDx=0;exitDy=0;entryX=0.5;entryY=0;entryDx=0;entryDy=0;" parent="1" source="WK32DhDvXuLAIViGbRyr-162" target="WK32DhDvXuLAIViGbRyr-122" edge="1">
          <mxGeometry relative="1" as="geometry">
            <mxPoint x="1434.37" y="300.61" as="sourcePoint" />
          </mxGeometry>
        </mxCell>
        <mxCell id="WK32DhDvXuLAIViGbRyr-171" style="edgeStyle=orthogonalEdgeStyle;rounded=0;orthogonalLoop=1;jettySize=auto;html=1;exitX=0.5;exitY=1;exitDx=0;exitDy=0;entryX=0.5;entryY=0;entryDx=0;entryDy=0;" parent="1" source="WK32DhDvXuLAIViGbRyr-122" target="WK32DhDvXuLAIViGbRyr-170" edge="1">
          <mxGeometry relative="1" as="geometry" />
        </mxCell>
        <mxCell id="WK32DhDvXuLAIViGbRyr-122" value="&lt;b&gt;&lt;font style=&quot;font-size: 18px;&quot;&gt;Relu&lt;/font&gt;&lt;/b&gt;" style="rounded=1;whiteSpace=wrap;html=1;fillColor=#a20025;fontColor=#ffffff;strokeColor=#6F0000;rotation=-90;" parent="1" vertex="1">
          <mxGeometry x="1025" y="285" width="65" height="33.74" as="geometry" />
        </mxCell>
        <mxCell id="WK32DhDvXuLAIViGbRyr-145" value="" style="strokeWidth=2;html=1;shape=mxgraph.flowchart.annotation_1;align=left;pointerEvents=1;direction=south;fontSize=14;fontStyle=1" parent="1" vertex="1">
          <mxGeometry x="227.5" y="135.63" width="380" height="50" as="geometry" />
        </mxCell>
        <mxCell id="WK32DhDvXuLAIViGbRyr-146" value="&lt;font style=&quot;font-size: 18px;&quot;&gt;Sub Graph2&lt;/font&gt;" style="text;html=1;align=center;verticalAlign=middle;resizable=0;points=[];autosize=1;strokeColor=none;fillColor=none;fontSize=14;fontStyle=1" parent="1" vertex="1">
          <mxGeometry x="770" y="95.63" width="130" height="40" as="geometry" />
        </mxCell>
        <mxCell id="WK32DhDvXuLAIViGbRyr-147" value="" style="strokeWidth=2;html=1;shape=mxgraph.flowchart.annotation_1;align=left;pointerEvents=1;direction=south;fontSize=14;fontStyle=1" parent="1" vertex="1">
          <mxGeometry x="1040" y="135.63" width="480" height="50" as="geometry" />
        </mxCell>
        <mxCell id="WK32DhDvXuLAIViGbRyr-148" value="" style="curved=1;endArrow=classic;html=1;rounded=0;exitX=0.5;exitY=1;exitDx=0;exitDy=0;entryX=0;entryY=0.5;entryDx=0;entryDy=0;" parent="1" source="WK32DhDvXuLAIViGbRyr-51" target="WK32DhDvXuLAIViGbRyr-122" edge="1">
          <mxGeometry width="50" height="50" relative="1" as="geometry">
            <mxPoint x="360" y="440" as="sourcePoint" />
            <mxPoint x="410" y="390" as="targetPoint" />
            <Array as="points">
              <mxPoint x="240" y="420" />
              <mxPoint x="340" y="480" />
              <mxPoint x="903" y="485" />
              <mxPoint x="1050" y="410" />
            </Array>
          </mxGeometry>
        </mxCell>
        <mxCell id="WK32DhDvXuLAIViGbRyr-149" value="&lt;b&gt;&lt;font style=&quot;font-size: 18px;&quot;&gt;Conv&lt;/font&gt;&lt;/b&gt;" style="rounded=1;whiteSpace=wrap;html=1;fillColor=#0038A8;fontColor=#ffffff;strokeColor=#001DBC;rotation=-90;" parent="1" vertex="1">
          <mxGeometry x="67.5" y="171.89" width="65" height="33.74" as="geometry" />
        </mxCell>
        <mxCell id="WK32DhDvXuLAIViGbRyr-150" value="&lt;b&gt;&lt;font style=&quot;font-size: 18px;&quot;&gt;Conv&lt;/font&gt;&lt;/b&gt;" style="rounded=1;whiteSpace=wrap;html=1;fillColor=#0038A8;fontColor=#ffffff;strokeColor=#001DBC;rotation=-90;" parent="1" vertex="1">
          <mxGeometry x="67.5" y="406.26" width="65" height="33.74" as="geometry" />
        </mxCell>
        <mxCell id="WK32DhDvXuLAIViGbRyr-154" style="edgeStyle=orthogonalEdgeStyle;rounded=0;orthogonalLoop=1;jettySize=auto;html=1;exitX=0.5;exitY=1;exitDx=0;exitDy=0;entryX=0.5;entryY=0;entryDx=0;entryDy=0;" parent="1" source="WK32DhDvXuLAIViGbRyr-151" target="WK32DhDvXuLAIViGbRyr-50" edge="1">
          <mxGeometry relative="1" as="geometry" />
        </mxCell>
        <mxCell id="WK32DhDvXuLAIViGbRyr-151" value="&lt;b&gt;&lt;font style=&quot;font-size: 18px;&quot;&gt;Conv&lt;/font&gt;&lt;/b&gt;" style="rounded=1;whiteSpace=wrap;html=1;fillColor=#0038A8;fontColor=#ffffff;strokeColor=#001DBC;rotation=-90;" parent="1" vertex="1">
          <mxGeometry x="385" y="169.39" width="65" height="33.74" as="geometry" />
        </mxCell>
        <mxCell id="WK32DhDvXuLAIViGbRyr-156" value="" style="curved=1;endArrow=classic;html=1;rounded=0;fontSize=14;fontStyle=1;exitX=1;exitY=0.5;exitDx=0;exitDy=0;entryX=0.5;entryY=0;entryDx=0;entryDy=0;" parent="1" source="WK32DhDvXuLAIViGbRyr-163" target="WK32DhDvXuLAIViGbRyr-158" edge="1">
          <mxGeometry width="50" height="50" relative="1" as="geometry">
            <mxPoint x="665" y="230" as="sourcePoint" />
            <mxPoint x="700" y="190" as="targetPoint" />
            <Array as="points">
              <mxPoint x="670" y="210" />
              <mxPoint x="680" y="190" />
            </Array>
          </mxGeometry>
        </mxCell>
        <mxCell id="WK32DhDvXuLAIViGbRyr-157" style="edgeStyle=orthogonalEdgeStyle;rounded=0;orthogonalLoop=1;jettySize=auto;html=1;exitX=0.5;exitY=1;exitDx=0;exitDy=0;entryX=0.5;entryY=0;entryDx=0;entryDy=0;" parent="1" source="WK32DhDvXuLAIViGbRyr-158" target="WK32DhDvXuLAIViGbRyr-165" edge="1">
          <mxGeometry relative="1" as="geometry">
            <mxPoint x="755" y="186.25" as="targetPoint" />
          </mxGeometry>
        </mxCell>
        <mxCell id="WK32DhDvXuLAIViGbRyr-158" value="&lt;b&gt;&lt;font style=&quot;font-size: 18px;&quot;&gt;Conv&lt;/font&gt;&lt;/b&gt;" style="rounded=1;whiteSpace=wrap;html=1;fillColor=#0038A8;fontColor=#ffffff;strokeColor=#001DBC;rotation=-90;" parent="1" vertex="1">
          <mxGeometry x="686.87" y="169.39" width="65" height="33.74" as="geometry" />
        </mxCell>
        <mxCell id="WK32DhDvXuLAIViGbRyr-159" style="edgeStyle=orthogonalEdgeStyle;rounded=0;orthogonalLoop=1;jettySize=auto;html=1;exitX=0.5;exitY=1;exitDx=0;exitDy=0;entryX=0.5;entryY=0;entryDx=0;entryDy=0;" parent="1" source="WK32DhDvXuLAIViGbRyr-166" target="WK32DhDvXuLAIViGbRyr-160" edge="1">
          <mxGeometry relative="1" as="geometry">
            <mxPoint x="1035" y="186.88" as="sourcePoint" />
          </mxGeometry>
        </mxCell>
        <mxCell id="WK32DhDvXuLAIViGbRyr-160" value="&lt;b&gt;&lt;font style=&quot;font-size: 18px;&quot;&gt;Conv&lt;/font&gt;&lt;/b&gt;" style="rounded=1;whiteSpace=wrap;html=1;fillColor=#0038A8;fontColor=#ffffff;strokeColor=#001DBC;rotation=-90;" parent="1" vertex="1">
          <mxGeometry x="900" y="170.01" width="65" height="33.74" as="geometry" />
        </mxCell>
        <mxCell id="WK32DhDvXuLAIViGbRyr-161" value="" style="curved=1;endArrow=classic;html=1;rounded=0;exitX=0.5;exitY=1;exitDx=0;exitDy=0;fontSize=14;fontStyle=1;entryX=1;entryY=0.5;entryDx=0;entryDy=0;" parent="1" source="WK32DhDvXuLAIViGbRyr-160" target="WK32DhDvXuLAIViGbRyr-162" edge="1">
          <mxGeometry width="50" height="50" relative="1" as="geometry">
            <mxPoint x="960" y="186.25" as="sourcePoint" />
            <mxPoint x="1045" y="260" as="targetPoint" />
            <Array as="points">
              <mxPoint x="1000" y="210" />
            </Array>
          </mxGeometry>
        </mxCell>
        <mxCell id="WK32DhDvXuLAIViGbRyr-162" value="&lt;b&gt;&lt;font style=&quot;font-size: 18px;&quot;&gt;Add&lt;/font&gt;&lt;/b&gt;" style="rounded=1;whiteSpace=wrap;html=1;fillColor=#76608a;fontColor=#ffffff;strokeColor=#432D57;rotation=-90;" parent="1" vertex="1">
          <mxGeometry x="965" y="285" width="65" height="33.74" as="geometry" />
        </mxCell>
        <mxCell id="WK32DhDvXuLAIViGbRyr-163" value="&lt;b&gt;&lt;font style=&quot;font-size: 18px;&quot;&gt;Relu&lt;/font&gt;&lt;/b&gt;" style="rounded=1;whiteSpace=wrap;html=1;fillColor=#a20025;fontColor=#ffffff;strokeColor=#6F0000;rotation=-90;" parent="1" vertex="1">
          <mxGeometry x="630" y="285" width="65" height="33.74" as="geometry" />
        </mxCell>
        <mxCell id="WK32DhDvXuLAIViGbRyr-164" style="edgeStyle=orthogonalEdgeStyle;rounded=0;orthogonalLoop=1;jettySize=auto;html=1;exitX=0.5;exitY=1;exitDx=0;exitDy=0;entryX=0.5;entryY=0;entryDx=0;entryDy=0;" parent="1" source="WK32DhDvXuLAIViGbRyr-165" target="WK32DhDvXuLAIViGbRyr-169" edge="1">
          <mxGeometry relative="1" as="geometry" />
        </mxCell>
        <mxCell id="WK32DhDvXuLAIViGbRyr-165" value="&lt;b&gt;&lt;font style=&quot;font-size: 18px;&quot;&gt;Relu&lt;/font&gt;&lt;/b&gt;" style="rounded=1;whiteSpace=wrap;html=1;fillColor=#a20025;fontColor=#ffffff;strokeColor=#6F0000;rotation=-90;" parent="1" vertex="1">
          <mxGeometry x="740" y="169.38" width="65" height="33.74" as="geometry" />
        </mxCell>
        <mxCell id="WK32DhDvXuLAIViGbRyr-166" value="&lt;b&gt;&lt;font style=&quot;font-size: 18px;&quot;&gt;Relu&lt;/font&gt;&lt;/b&gt;" style="rounded=1;whiteSpace=wrap;html=1;fillColor=#a20025;fontColor=#ffffff;strokeColor=#6F0000;rotation=-90;" parent="1" vertex="1">
          <mxGeometry x="850" y="170.01" width="65" height="33.74" as="geometry" />
        </mxCell>
        <mxCell id="WK32DhDvXuLAIViGbRyr-167" value="" style="curved=1;endArrow=classic;html=1;rounded=0;exitX=0;exitY=0.5;exitDx=0;exitDy=0;entryX=0;entryY=0.5;entryDx=0;entryDy=0;" parent="1" source="WK32DhDvXuLAIViGbRyr-163" target="WK32DhDvXuLAIViGbRyr-162" edge="1">
          <mxGeometry width="50" height="50" relative="1" as="geometry">
            <mxPoint x="700" y="300" as="sourcePoint" />
            <mxPoint x="750" y="250" as="targetPoint" />
            <Array as="points">
              <mxPoint x="680" y="410" />
              <mxPoint x="820" y="430" />
              <mxPoint x="990" y="410" />
            </Array>
          </mxGeometry>
        </mxCell>
        <mxCell id="WK32DhDvXuLAIViGbRyr-168" style="edgeStyle=orthogonalEdgeStyle;rounded=0;orthogonalLoop=1;jettySize=auto;html=1;exitX=0.5;exitY=1;exitDx=0;exitDy=0;entryX=0.5;entryY=0;entryDx=0;entryDy=0;" parent="1" source="WK32DhDvXuLAIViGbRyr-169" target="WK32DhDvXuLAIViGbRyr-166" edge="1">
          <mxGeometry relative="1" as="geometry" />
        </mxCell>
        <mxCell id="WK32DhDvXuLAIViGbRyr-169" value="&lt;b&gt;&lt;font style=&quot;font-size: 18px;&quot;&gt;Conv&lt;/font&gt;&lt;/b&gt;" style="rounded=1;whiteSpace=wrap;html=1;fillColor=#0038A8;fontColor=#ffffff;strokeColor=#001DBC;rotation=-90;" parent="1" vertex="1">
          <mxGeometry x="795" y="169.39" width="65" height="33.74" as="geometry" />
        </mxCell>
        <mxCell id="WK32DhDvXuLAIViGbRyr-175" style="edgeStyle=orthogonalEdgeStyle;rounded=0;orthogonalLoop=1;jettySize=auto;html=1;exitX=0.5;exitY=1;exitDx=0;exitDy=0;entryX=0.5;entryY=0;entryDx=0;entryDy=0;" parent="1" source="WK32DhDvXuLAIViGbRyr-170" target="WK32DhDvXuLAIViGbRyr-172" edge="1">
          <mxGeometry relative="1" as="geometry" />
        </mxCell>
        <mxCell id="WK32DhDvXuLAIViGbRyr-170" value="&lt;b&gt;&lt;font style=&quot;font-size: 18px;&quot;&gt;Conv&lt;/font&gt;&lt;/b&gt;" style="rounded=1;whiteSpace=wrap;html=1;fillColor=#0038A8;fontColor=#ffffff;strokeColor=#001DBC;rotation=-90;" parent="1" vertex="1">
          <mxGeometry x="1080" y="285" width="65" height="33.74" as="geometry" />
        </mxCell>
        <mxCell id="WK32DhDvXuLAIViGbRyr-177" style="edgeStyle=orthogonalEdgeStyle;rounded=0;orthogonalLoop=1;jettySize=auto;html=1;exitX=0.5;exitY=1;exitDx=0;exitDy=0;entryX=0.5;entryY=0;entryDx=0;entryDy=0;" parent="1" source="WK32DhDvXuLAIViGbRyr-172" target="WK32DhDvXuLAIViGbRyr-176" edge="1">
          <mxGeometry relative="1" as="geometry" />
        </mxCell>
        <mxCell id="WK32DhDvXuLAIViGbRyr-172" value="&lt;b&gt;&lt;font style=&quot;font-size: 18px;&quot;&gt;Relu&lt;/font&gt;&lt;/b&gt;" style="rounded=1;whiteSpace=wrap;html=1;fillColor=#a20025;fontColor=#ffffff;strokeColor=#6F0000;rotation=-90;" parent="1" vertex="1">
          <mxGeometry x="1140" y="285" width="65" height="33.74" as="geometry" />
        </mxCell>
        <mxCell id="WK32DhDvXuLAIViGbRyr-176" value="&lt;b&gt;&lt;font style=&quot;font-size: 18px;&quot;&gt;Conv&lt;/font&gt;&lt;/b&gt;" style="rounded=1;whiteSpace=wrap;html=1;fillColor=#0038A8;fontColor=#ffffff;strokeColor=#001DBC;rotation=-90;" parent="1" vertex="1">
          <mxGeometry x="1195" y="285" width="65" height="33.74" as="geometry" />
        </mxCell>
        <mxCell id="WK32DhDvXuLAIViGbRyr-178" value="" style="curved=1;endArrow=classic;html=1;rounded=0;fontSize=14;fontStyle=1;exitX=1;exitY=0.5;exitDx=0;exitDy=0;entryX=0.5;entryY=0;entryDx=0;entryDy=0;" parent="1" source="WK32DhDvXuLAIViGbRyr-176" target="WK32DhDvXuLAIViGbRyr-179" edge="1">
          <mxGeometry width="50" height="50" relative="1" as="geometry">
            <mxPoint x="1240" y="263" as="sourcePoint" />
            <mxPoint x="1280" y="180" as="targetPoint" />
            <Array as="points">
              <mxPoint x="1240" y="200" />
            </Array>
          </mxGeometry>
        </mxCell>
        <mxCell id="WK32DhDvXuLAIViGbRyr-182" style="edgeStyle=orthogonalEdgeStyle;rounded=0;orthogonalLoop=1;jettySize=auto;html=1;exitX=0.5;exitY=1;exitDx=0;exitDy=0;entryX=0.5;entryY=0;entryDx=0;entryDy=0;" parent="1" source="WK32DhDvXuLAIViGbRyr-179" target="WK32DhDvXuLAIViGbRyr-180" edge="1">
          <mxGeometry relative="1" as="geometry" />
        </mxCell>
        <mxCell id="WK32DhDvXuLAIViGbRyr-179" value="&lt;b&gt;&lt;font style=&quot;font-size: 18px;&quot;&gt;Shape&lt;/font&gt;&lt;/b&gt;" style="rounded=1;whiteSpace=wrap;html=1;fillColor=#000000;fontColor=#ffffff;strokeColor=#001DBC;rotation=-90;" parent="1" vertex="1">
          <mxGeometry x="1250" y="171.89" width="80" height="33.74" as="geometry" />
        </mxCell>
        <mxCell id="WK32DhDvXuLAIViGbRyr-183" style="edgeStyle=orthogonalEdgeStyle;rounded=0;orthogonalLoop=1;jettySize=auto;html=1;exitX=0.5;exitY=1;exitDx=0;exitDy=0;entryX=0.5;entryY=0;entryDx=0;entryDy=0;" parent="1" source="WK32DhDvXuLAIViGbRyr-180" target="WK32DhDvXuLAIViGbRyr-181" edge="1">
          <mxGeometry relative="1" as="geometry" />
        </mxCell>
        <mxCell id="WK32DhDvXuLAIViGbRyr-180" value="&lt;b&gt;&lt;font style=&quot;font-size: 18px;&quot;&gt;Slice&lt;/font&gt;&lt;/b&gt;" style="rounded=1;whiteSpace=wrap;html=1;fillColor=#a0522d;fontColor=#ffffff;strokeColor=#6D1F00;rotation=-90;" parent="1" vertex="1">
          <mxGeometry x="1310" y="171.89" width="75" height="33.74" as="geometry" />
        </mxCell>
        <mxCell id="WK32DhDvXuLAIViGbRyr-181" value="&lt;b&gt;&lt;font style=&quot;font-size: 18px;&quot;&gt;Concat&lt;/font&gt;&lt;/b&gt;" style="rounded=1;whiteSpace=wrap;html=1;fillColor=#a0522d;strokeColor=#6D1F00;rotation=-90;fontColor=#ffffff;" parent="1" vertex="1">
          <mxGeometry x="1356.25" y="171.89" width="85" height="33.74" as="geometry" />
        </mxCell>
        <mxCell id="WK32DhDvXuLAIViGbRyr-188" style="edgeStyle=orthogonalEdgeStyle;rounded=0;orthogonalLoop=1;jettySize=auto;html=1;exitX=0.5;exitY=1;exitDx=0;exitDy=0;entryX=0.5;entryY=0;entryDx=0;entryDy=0;" parent="1" source="WK32DhDvXuLAIViGbRyr-184" target="Iu25lgEWChFgaFbriD92-103" edge="1">
          <mxGeometry relative="1" as="geometry" />
        </mxCell>
        <mxCell id="WK32DhDvXuLAIViGbRyr-184" value="&lt;b&gt;&lt;font style=&quot;font-size: 18px;&quot;&gt;Resize&lt;/font&gt;&lt;/b&gt;" style="rounded=1;whiteSpace=wrap;html=1;fillColor=#000000;fontColor=#ffffff;strokeColor=#001DBC;rotation=-90;" parent="1" vertex="1">
          <mxGeometry x="1410" y="282.48" width="82.5" height="33.74" as="geometry" />
        </mxCell>
        <mxCell id="WK32DhDvXuLAIViGbRyr-185" value="" style="curved=1;endArrow=classic;html=1;rounded=0;exitX=0.5;exitY=1;exitDx=0;exitDy=0;fontSize=14;fontStyle=1;entryX=1;entryY=0.5;entryDx=0;entryDy=0;" parent="1" source="WK32DhDvXuLAIViGbRyr-181" target="WK32DhDvXuLAIViGbRyr-184" edge="1">
          <mxGeometry width="50" height="50" relative="1" as="geometry">
            <mxPoint x="1450" y="185.63" as="sourcePoint" />
            <mxPoint x="1499" y="267.63" as="targetPoint" />
            <Array as="points">
              <mxPoint x="1450" y="210" />
            </Array>
          </mxGeometry>
        </mxCell>
        <mxCell id="WK32DhDvXuLAIViGbRyr-186" value="" style="curved=1;endArrow=classic;html=1;rounded=0;exitX=0;exitY=0.5;exitDx=0;exitDy=0;entryX=0;entryY=0.5;entryDx=0;entryDy=0;" parent="1" source="WK32DhDvXuLAIViGbRyr-176" target="WK32DhDvXuLAIViGbRyr-184" edge="1">
          <mxGeometry width="50" height="50" relative="1" as="geometry">
            <mxPoint x="1240" y="340" as="sourcePoint" />
            <mxPoint x="1575" y="340" as="targetPoint" />
            <Array as="points">
              <mxPoint x="1257" y="416" />
              <mxPoint x="1440" y="410" />
            </Array>
          </mxGeometry>
        </mxCell>
        <mxCell id="iHW-Y4CmuCvhts63MxUH-1" value="&lt;font style=&quot;font-size: 18px;&quot;&gt;Input&lt;/font&gt;" style="rounded=1;whiteSpace=wrap;html=1;fillColor=#f5f5f5;gradientColor=#b3b3b3;strokeColor=#666666;fontSize=14;fontStyle=1;rotation=-90;" parent="1" vertex="1">
          <mxGeometry x="-134" y="290" width="311" height="35" as="geometry" />
        </mxCell>
        <mxCell id="iHW-Y4CmuCvhts63MxUH-3" value="&lt;span style=&quot;font-size: 18px;&quot;&gt;Intermediate Layers&lt;/span&gt;" style="text;html=1;align=center;verticalAlign=middle;resizable=0;points=[];autosize=1;strokeColor=none;fillColor=none;fontSize=14;fontStyle=1" parent="1" vertex="1">
          <mxGeometry x="-3" y="465" width="188" height="34" as="geometry" />
        </mxCell>
        <mxCell id="iHW-Y4CmuCvhts63MxUH-4" value="" style="endArrow=classic;html=1;rounded=0;exitX=0.352;exitY=0.077;exitDx=0;exitDy=0;exitPerimeter=0;" parent="1" source="iHW-Y4CmuCvhts63MxUH-3" edge="1">
          <mxGeometry width="50" height="50" relative="1" as="geometry">
            <mxPoint x="63" y="465" as="sourcePoint" />
            <mxPoint x="63" y="434" as="targetPoint" />
          </mxGeometry>
        </mxCell>
        <mxCell id="HHUmqBFFVgjGskNVfYyt-1" value="&lt;font style=&quot;font-size: 18px;&quot;&gt;Early Exit Point: 967&lt;/font&gt;" style="text;html=1;align=center;verticalAlign=middle;resizable=0;points=[];autosize=1;strokeColor=none;fillColor=none;fontSize=14;fontStyle=1;rotation=0;" vertex="1" parent="1">
          <mxGeometry x="188" y="498" width="191" height="34" as="geometry" />
        </mxCell>
        <mxCell id="HHUmqBFFVgjGskNVfYyt-2" value="" style="endArrow=classic;html=1;rounded=0;exitX=0.121;exitY=0.016;exitDx=0;exitDy=0;exitPerimeter=0;" edge="1" parent="1" source="HHUmqBFFVgjGskNVfYyt-1">
          <mxGeometry width="50" height="50" relative="1" as="geometry">
            <mxPoint x="211" y="505" as="sourcePoint" />
            <mxPoint x="211" y="370" as="targetPoint" />
          </mxGeometry>
        </mxCell>
      </root>
    </mxGraphModel>
  </diagram>
</mxfile>
